<?xml version="1.0" standalone="no"?>
<!DOCTYPE svg PUBLIC "-//W3C//DTD SVG 20010904//EN"
 "http://www.w3.org/TR/2001/REC-SVG-20010904/DTD/svg10.dtd">
<svg version="1.0" xmlns="http://www.w3.org/2000/svg"
 width="230pt" height="230pt" viewBox="0 0 899 640"
 preserveAspectRatio="xMidYMid meet">

<g transform="translate(0.000000,640.000000) scale(0.100000,-0.100000)"
fill="#000000" stroke="none">
<path d="M7899 4983 c-131 -155 -222 -292 -352 -528 -81 -146 -350 -703 -461
-952 l-81 -181 -61 -45 c-33 -24 -83 -65 -112 -90 -157 -140 -363 -237 -500
-237 -48 0 -58 4 -88 34 -22 22 -34 44 -34 62 0 39 163 365 259 517 45 70 81
136 81 147 0 28 -43 54 -68 41 -43 -23 -186 -220 -246 -339 l-27 -54 -99 4
c-99 3 -100 3 -135 38 -26 26 -39 52 -51 103 -17 69 -37 93 -68 81 -8 -3 -51
-56 -94 -117 -133 -189 -340 -387 -402 -387 -46 0 -45 19 24 272 113 418 114
423 50 423 -28 0 -31 -5 -62 -95 -36 -104 -117 -368 -127 -413 -4 -18 -40 -63
-98 -120 -284 -283 -567 -492 -878 -646 -226 -112 -364 -149 -595 -158 -137
-5 -158 -4 -224 16 -60 19 -81 31 -124 74 -201 202 -2 519 499 795 50 27 176
92 280 145 189 95 305 169 324 206 14 26 4 50 -25 61 -33 13 -52 3 -47 -24 4
-17 -4 -30 -27 -50 -43 -35 -78 -53 -278 -137 -214 -91 -422 -195 -526 -264
-45 -30 -122 -92 -171 -138 -137 -128 -195 -241 -196 -380 -1 -40 6 -91 14
-115 14 -40 14 -42 -1 -30 -10 8 -64 55 -122 104 -262 225 -411 334 -696 512
l-131 82 54 106 c39 75 74 125 120 175 94 99 176 137 403 188 202 46 321 83
474 152 61 27 112 47 114 45 2 -2 -1 -21 -7 -43 -48 -170 55 -298 261 -324 46
-6 101 -8 123 -5 67 10 485 124 458 125 -7 1 -110 -15 -230 -35 -313 -52 -399
-43 -481 51 -60 68 -56 114 24 234 150 229 352 409 614 550 99 53 296 129 379
147 175 37 330 -4 397 -106 21 -32 28 -56 32 -114 5 -87 -7 -144 -60 -283 -22
-57 -38 -115 -36 -129 4 -36 52 -72 76 -58 26 16 70 111 87 189 22 105 20 242
-6 318 -66 197 -257 289 -504 242 -193 -36 -401 -116 -582 -225 l-111 -67 -12
45 c-15 61 -43 98 -93 125 -35 18 -57 22 -137 21 -113 0 -166 -16 -300 -86
-120 -63 -258 -161 -382 -272 -99 -88 -299 -305 -377 -408 -43 -57 -91 -85
-124 -73 -14 6 -14 12 3 58 10 29 47 115 82 192 181 393 368 825 368 848 0 45
-54 80 -88 55 -29 -21 -122 -124 -122 -135 0 -5 11 -20 25 -33 31 -29 31 -43
0 -84 -34 -45 -245 -480 -345 -714 -101 -236 -110 -245 -255 -286 -155 -43
-498 -147 -518 -158 -24 -12 -21 -50 6 -76 16 -16 45 -25 102 -32 130 -18 325
-72 350 -97 8 -8 15 -26 15 -40 0 -15 -92 -241 -205 -503 -113 -263 -205 -480
-205 -483 0 -3 -40 -105 -90 -225 -49 -121 -90 -231 -90 -244 0 -32 32 -61 62
-56 28 4 56 53 134 238 338 805 514 1189 554 1210 32 17 68 5 182 -62 228
-135 735 -505 873 -637 33 -32 80 -71 105 -87 73 -48 74 -49 65 -34 -6 10 -4
11 11 5 34 -14 249 -18 355 -5 223 26 531 158 835 358 179 118 304 218 484
386 74 69 136 122 137 118 1 -4 4 -29 8 -56 8 -60 42 -96 91 -96 45 0 100 46
331 273 l192 189 68 -56 c72 -61 159 -96 234 -96 21 0 39 -2 39 -4 0 -2 -11
-32 -24 -67 -57 -152 -56 -223 4 -287 51 -53 85 -65 159 -59 165 15 348 107
613 307 l27 21 -26 -68 c-144 -375 -240 -771 -274 -1126 -19 -206 -1 -307 67
-366 41 -37 117 -52 141 -28 22 22 1 54 -45 67 -21 5 -49 21 -61 34 -23 25
-24 27 -18 218 6 215 21 319 89 583 144 569 405 1179 758 1770 115 192 305
482 399 609 28 38 51 76 51 86 0 20 -41 60 -62 60 -8 0 -49 -39 -89 -87z
m-4230 -497 c50 -26 91 -82 91 -124 0 -58 -25 -93 -161 -220 -122 -114 -131
-121 -250 -174 -212 -95 -530 -194 -719 -224 -53 -8 -64 -26 101 166 159 185
316 334 435 413 111 73 178 106 304 148 95 32 157 36 199 15z m-1539 -1019 c0
-37 -27 -117 -46 -138 -30 -33 -71 -32 -219 6 -77 20 -144 40 -148 45 -10 9
80 40 218 74 138 34 137 34 168 35 22 1 27 -3 27 -22z"/>
<path d="M6593 3990 c-27 -11 -38 -47 -25 -81 15 -39 37 -52 75 -45 74 14 97
58 56 110 -22 27 -62 34 -106 16z"/>
</g>
</svg>
